<svg version="1.1" viewBox="0.0 0.0 960.0 540.0" fill="none" stroke="none" stroke-linecap="square" stroke-miterlimit="10" xmlns:xlink="http://www.w3.org/1999/xlink" xmlns="http://www.w3.org/2000/svg"><clipPath id="g3af29ba81f9_0_55.0"><path d="m0 0l960.0 0l0 540.0l-960.0 0l0 -540.0z" clip-rule="nonzero"/></clipPath><g clip-path="url(#g3af29ba81f9_0_55.0)"><path fill="#000000" fill-opacity="0.0" d="m0 0l960.0 0l0 540.0l-960.0 0z" fill-rule="evenodd"/><path fill="#000000" fill-opacity="0.0" d="m-154.87401 364.59332l773.8583 0l0 112.724396l-773.8583 0z" fill-rule="evenodd"/><path fill="#000000" d="m125.20436 383.75238q7.109375 0 11.65625 3.703125q4.5625 3.703125 4.5625 10.46875q0 5.421875 -2.796875 9.125q-2.78125 3.703125 -7.796875 4.703125l0 0.15625l1.140625 0.21875q3.796875 0.890625 5.765625 3.34375q1.96875 2.453125 2.53125 7.875l0.328125 5.8125q0.34375 3.375 0.59375 4.890625q0.265625 1.5 1.265625 3.578125l0.375 0.484375l-5.6875 0q-1.078125 -1.484375 -1.40625 -8.4375q-0.53125 -9.703125 -3.109375 -12.71875q-2.578125 -3.015625 -7.078125 -2.96875l-20.375 0l0 24.125l-5.203125 0l0 -54.359375l25.234375 0zm-0.4375 25.8125q4.609375 0 8.03125 -2.90625q3.421875 -2.90625 3.421875 -7.703125q0 -5.265625 -3.09375 -8.015625q-3.078125 -2.765625 -8.328125 -2.765625l-19.625 0l0 21.390625l19.59375 0zm40.863342 -11.859375q7.984375 0 12.625 5.796875q4.65625 5.796875 4.65625 15.46875l0 0.78125l-30.234375 0q0.125 6.828125 3.671875 11.140625q3.546875 4.3125 9.28125 4.3125q4.78125 0 7.859375 -2.46875q3.09375 -2.46875 4.46875 -7.5625l4.796875 0q-1.671875 7.09375 -5.875 10.59375q-4.1875 3.5 -11.25 3.5q-8.328125 0 -13.03125 -5.578125q-4.703125 -5.578125 -4.703125 -15.203125q0 -9.15625 4.71875 -14.96875q4.71875 -5.8125 13.015625 -5.8125zm12.484375 18.03125q-0.1875 -5.84375 -3.671875 -9.921875q-3.46875 -4.09375 -8.890625 -4.09375q-5.09375 0 -8.578125 3.796875q-3.46875 3.78125 -4.296875 10.21875l25.4375 0zm26.770264 -18.03125q7.4375 0 10.921875 3.21875q3.5 3.203125 3.5 9.078125l0 21.34375q0 1.1875 0.671875 1.953125q0.671875 0.765625 2.15625 0.765625q0.40625 0 0.78125 -0.046875q0.375 -0.0625 0.703125 -0.25l0 4.046875q-0.890625 0.1875 -1.578125 0.25q-0.6875 0.046875 -1.46875 0.046875q-3.125 0 -4.40625 -1.5q-1.28125 -1.515625 -1.28125 -4.9375l0 -0.40625l-0.15625 0q-2.9375 4.46875 -6.15625 6.234375q-3.203125 1.765625 -8.109375 1.765625q-5.984375 0 -9.59375 -2.984375q-3.609375 -3.0 -3.609375 -8.546875q0 -5.6875 3.953125 -8.5625q3.96875 -2.890625 17.6875 -4.109375q3.125 -0.265625 4.359375 -1.4375q1.25 -1.171875 1.25 -3.84375q0 -3.984375 -2.421875 -6.015625q-2.40625 -2.046875 -7.84375 -2.046875q-4.9375 0 -7.65625 2.34375q-2.703125 2.328125 -2.859375 6.796875l-4.796875 0q0.34375 -6.46875 4.4375 -9.8125q4.109375 -3.34375 11.515625 -3.34375zm9.484375 18.921875q-0.75 1.328125 -4.578125 1.859375q-3.796875 0.515625 -8.40625 1.3125q-4.609375 0.796875 -6.96875 2.625q-2.359375 1.8125 -2.359375 5.015625q0 3.5 2.59375 5.640625q2.609375 2.125 6.1875 2.125q5.859375 0 9.765625 -3.484375q3.90625 -3.5 3.90625 -8.625l0 -6.46875l-0.140625 0zm49.11403 -32.875l0 54.359375l-4.4375 0l0 -7.46875l-0.140625 0q-1.671875 3.9375 -5.7343903 6.28125q-4.046875 2.34375 -8.328125 2.34375q-8.03125 0 -12.828125 -5.65625q-4.78125 -5.65625 -4.78125 -15.125q0 -9.40625 4.75 -15.09375q4.765625 -5.6875 12.859375 -5.6875q4.609375 0 8.359375 2.234375q3.7656403 2.21875 5.3281403 6.34375l0.15625 0l0 -22.53125l4.796875 0zm-31.45314 34.734375q0 7.28125 3.4375 12.0q3.4375 4.71875 9.421875 4.71875q6.578125 0 10.1875 -4.671875q3.6093903 -4.6875 3.6093903 -12.046875q0 -7.40625 -3.5937653 -12.078125q-3.59375 -4.6875 -10.25 -4.6875q-5.828125 0 -9.328125 4.625q-3.484375 4.625 -3.484375 12.140625zm45.455765 -34.734375l0 7.703125l-4.796875 0l0 -7.703125l4.796875 0zm0 15.0625l0 39.296875l-4.796875 0l0 -39.296875l4.796875 0zm26.69983 -1.109375q7.546875 0 10.9375 3.6875q3.40625 3.671875 3.40625 11.0625l0 25.65625l-4.796875 0l0 -24.828125q0 -5.6875 -2.46875 -8.625q-2.46875 -2.9375 -7.484375 -2.9375q-3.9375 0 -6.78125 1.921875q-2.84375 1.90625 -4.203125 5.125q-1.359375 3.203125 -1.359375 6.375l0 22.96875l-4.796875 0l0 -39.296875l4.796875 0l0 6.796875l0.140625 0q1.375 -3.53125 4.828125 -5.71875q3.46875 -2.1875 7.78125 -2.1875zm39.145874 0q4.171875 0 7.578125 2.234375q3.421875 2.21875 4.953125 5.671875l0.15625 0l0 -6.796875l4.78125 0l0 36.515625q0 9.0625 -4.234375 13.765625q-4.234375 4.703125 -13.15625 4.703125q-6.6875 0 -11.28125 -3.109375q-4.59375 -3.09375 -5.046875 -8.78125l4.796875 0q0.59375 3.71875 3.625 5.78125q3.03125 2.0625 7.875 2.0625q6.390625 0 9.515625 -3.65625q3.125 -3.640625 3.125 -10.8125l0 -5.6875l-0.15625 0q-1.78125 3.828125 -5.109375 5.953125q-3.328125 2.109375 -7.421875 2.109375q-8.40625 0 -13.046875 -5.296875q-4.640625 -5.296875 -4.640625 -14.84375q0 -8.625 4.8125 -14.21875q4.8125 -5.59375 12.875 -5.59375zm-12.90625 20.296875q0 6.953125 3.515625 11.28125q3.515625 4.328125 9.4375 4.328125q5.6875 0 9.15625 -4.5q3.484375 -4.5 3.484375 -11.109375q0 -7.0 -3.359375 -11.640625q-3.34375 -4.640625 -9.359375 -4.640625q-5.921875 0 -9.40625 4.515625q-3.46875 4.515625 -3.46875 11.765625z" fill-rule="nonzero"/><path fill="#000000" d="m415.08163 382.61176q8.78125 0 14.921875 4.625q6.15625 4.625 7.765625 13.40625l-5.171875 0q-0.625 -5.390625 -5.609375 -9.5q-4.984375 -4.109375 -11.90625 -4.109375q-9.515625 0 -15.0 6.6875q-5.484375 6.6875 -5.484375 17.21875q0 10.375 5.4375 17.140625q5.453125 6.765625 15.046875 6.765625q8.375 0 13.59375 -5.234375q5.21875 -5.25 5.21875 -14.59375l0 -0.140625l-18.515625 0l0 -4.390625l23.09375 0l0 27.625l-3.75 0l-0.671875 -9.890625l-0.15625 0q-2.59375 5.421875 -7.484375 8.234375q-4.890625 2.8125 -11.328125 2.8125q-11.75 0 -18.703125 -7.96875q-6.9375 -7.984375 -6.9375 -20.359375q0 -12.453125 6.96875 -20.390625q6.96875 -7.9375 18.671875 -7.9375zm50.68628 15.6875l1.1875 0l0 4.796875l-0.5625 0q-6.359375 0 -10.203125 4.078125q-3.84375 4.0625 -3.84375 10.125l0 20.8125l-4.796875 0l0 -39.296875l4.421875 0l0 9.21875l0.140625 0q1.796875 -4.609375 5.421875 -7.171875q3.625 -2.5625 8.234375 -2.5625zm21.409607 -0.59375q8.40625 0 13.5 5.84375q5.09375 5.828125 5.09375 14.9375q0 5.5 -2.109375 10.265625q-2.09375 4.75 -6.390625 7.640625q-4.296875 2.875 -10.09375 2.875q-8.328125 0 -13.4375 -5.859375q-5.109375 -5.859375 -5.109375 -14.921875q0 -9.109375 5.09375 -14.9375q5.09375 -5.84375 13.453125 -5.84375zm-13.765625 20.78125q0 6.953125 3.75 11.84375q3.765625 4.875 10.015625 4.875q6.25 0 10.015625 -4.90625q3.78125 -4.90625 3.78125 -11.8125q0 -6.921875 -3.78125 -11.84375q-3.765625 -4.921875 -10.09375 -4.921875q-6.09375 0 -9.890625 4.875q-3.796875 4.859375 -3.796875 11.890625zm44.252045 -19.671875l0 25.609375q0 4.953125 2.3125 7.875q2.328125 2.90625 8.125 2.90625q5.546875 0 8.703125 -4.421875q3.15625 -4.421875 3.15625 -11.03125l0 -20.9375l4.796875 0l0 39.296875l-4.421875 0l0 -7.0625l-0.140625 0q-1.90625 3.859375 -5.46875 6.046875q-3.5625 2.171875 -8.109375 2.171875q-7.0625 0 -10.40625 -3.75q-3.34375 -3.765625 -3.34375 -10.859375l0 -25.84375l4.796875 0zm54.755188 -1.109375q8.265625 0 12.96875 5.765625q4.703125 5.75 4.703125 15.015625q0 9.171875 -4.734375 14.984375q-4.71875 5.796875 -12.890625 5.796875q-4.6875 0 -8.46875 -2.296875q-3.765625 -2.3125 -5.21875 -6.328125l-0.140625 0l0 22.0l-4.796875 0l0 -53.828125l4.421875 0l0 7.46875l0.140625 0q1.75 -4.125 5.5 -6.34375q3.765625 -2.234375 8.515625 -2.234375zm-13.78125 20.734375q0 7.484375 3.578125 12.125q3.59375 4.640625 10.203125 4.640625q6.03125 0 9.453125 -4.765625q3.421875 -4.78125 3.421875 -11.953125q0 -7.21875 -3.421875 -11.984375q-3.421875 -4.78125 -9.5625 -4.78125q-6.65625 0 -10.171875 4.203125q-3.5 4.1875 -3.5 12.515625z" fill-rule="nonzero"/><path fill="#000000" fill-opacity="0.0" d="m-338.3169 93.309654l1236.2205 0l0 324.12598l-1236.2205 0z" fill-rule="evenodd"/><path fill="#000000" d="m219.21059 221.1348l0 -101.98437l20.40625 0l0 40.796867l40.781235 0l0 -40.796867l20.40625 0l0 101.98437l-20.40625 0l0 -40.796875l-40.781235 0l0 40.796875l-20.40625 0zm122.37883 0l0 -101.98437l20.40625 0l0 101.98437l-20.40625 0zm61.189392 0l0 -101.98437l61.1875 0l0 20.406242l20.40625 0l0 61.1875l-20.40625 0l0 20.390625l-61.1875 0zm20.40625 -20.390625l39.96875 0l0 -61.1875l-39.96875 0l0 61.1875zm101.972595 20.390625l0 -101.98437l61.1875 0l0 20.406242l20.40625 0l0 61.1875l-20.40625 0l0 20.390625l-61.1875 0zm20.40625 -20.390625l39.96875 0l0 -61.1875l-39.96875 0l0 61.1875zm101.972595 20.390625l0 -101.98437l61.1875 0l0 20.406242l-40.78125 0l0 20.390625l40.78125 0l0 20.390625l-40.78125 0l0 20.40625l40.78125 0l0 20.390625l-61.1875 0zm101.9823 0l0 -101.98437l20.40625 0l0 20.406242l20.390625 0l0 20.390625l20.390625 0l0 20.390625l20.40625 0l0 -61.187492l20.390625 0l0 101.98437l-20.390625 0l0 -20.390625l-20.40625 0l0 -20.40625l-20.390625 0l0 -20.390625l-20.390625 0l0 61.1875l-20.40625 0z" fill-rule="nonzero"/><path fill="#000000" d="m101.332954 359.73013l0 -113.32814l22.65625 0l0 90.656265l45.328133 0l0 22.671875l-67.98438 0zm113.32038 0l0 -90.65625l22.65625 0l0 -22.67189l45.32811 0l0 22.67189l22.671875 0l0 90.65625l-22.671875 0l0 -45.328125l-45.32811 0l0 45.328125l-22.65625 0zm22.65625 -68.0l45.32811 0l0 -21.75l-45.32811 0l0 21.75zm158.65623 68.0l0 -68.0l-22.671875 0l0 -22.65625l-22.65625 0l0 -22.67189l22.65625 0l0 22.67189l22.671875 0l0 22.65625l22.65625 0l0 68.0l-22.65625 0zm45.328125 -90.65625l0 -22.67189l22.65625 0l0 22.67189l-22.65625 0zm-22.671875 22.65625l0 -22.65625l22.671875 0l0 22.65625l-22.671875 0zm90.664185 68.0l0 -113.32814l67.984375 0l0 22.67189l-45.328125 0l0 22.65625l45.328125 0l0 22.671875l-45.328125 0l0 22.65625l45.328125 0l0 22.671875l-67.984375 0zm113.32031 0l0 -113.32814l67.984375 0l0 22.67189l22.671875 0l0 22.65625l-22.671875 0l0 45.328125l22.671875 0l0 22.671875l-22.671875 0l0 -22.671875l-22.65625 0l0 -22.65625l-22.671875 0l0 45.328125l-22.65625 0zm22.65625 -68.0l44.421875 0l0 -22.65625l-44.421875 0l0 22.65625zm135.9845 -22.65625l0 -22.67189l68.0 0l0 22.67189l-68.0 0zm45.328125 67.984375l0 -22.65625l-45.328125 0l0 -22.671875l-22.65625 0l0 -22.65625l22.65625 0l0 22.65625l45.328125 0l0 22.671875l22.671875 0l0 22.65625l-22.671875 0zm-67.984375 22.671875l0 -22.671875l67.984375 0l0 22.671875l-67.984375 0z" fill-rule="nonzero"/></g></svg>