<svg version="1.1" viewBox="0.0 0.0 960.0 960.0" fill="none" stroke="none" stroke-linecap="square" stroke-miterlimit="10" xmlns:xlink="http://www.w3.org/1999/xlink" xmlns="http://www.w3.org/2000/svg"><clipPath id="g3b1a92bfaff_0_0.0"><path d="m0 0l960.0 0l0 960.0l-960.0 0l0 -960.0z" clip-rule="nonzero"/></clipPath><g clip-path="url(#g3b1a92bfaff_0_0.0)"><path fill="#000000" fill-opacity="0.0" d="m0 0l960.0 0l0 960.0l-960.0 0z" fill-rule="evenodd"/><path fill="#000000" fill-opacity="0.0" d="m19.304462 22.816273l921.38586 0l0 914.3622l-921.38586 0z" fill-rule="evenodd"/><path fill="#ffffff" d="m238.55446 388.67737l0 -1.734375l11.453125 -4.421875l0 -59.1875l-15.453125 0l-8.640625 17.828125l-1.71875 0l0 -23.765625l67.92189 0l0 23.765625l-1.71875 0l-8.640625 -17.828125l-15.4375 0l0 59.1875l11.4375 4.421875l0 1.734375l-39.20314 0zm60.801773 0l0 -1.734375l7.234375 -3.453125l0 -63.5l-6.90625 -5.078125l0 -1.296875l20.734375 -5.9375l1.296875 0l0 38.65625l0.4375 0q3.890625 -3.765625 7.5625 -5.875q3.671875 -2.109375 8.640625 -2.109375q6.578125 0 10.734375 3.359375q4.15625 3.34375 4.15625 9.921875l0 31.859375l7.234375 3.453125l0 1.734375l-27.859375 0l0 -1.734375l5.40625 -3.34375l0 -27.53125q0 -3.78125 -2.171875 -5.78125q-2.15625 -2.0 -5.609375 -2.0q-2.046875 0 -4.484375 0.765625q-2.421875 0.75 -4.046875 2.046875l0 32.5l5.515625 3.34375l0 1.734375l-27.875 0zm91.47839 1.078125q-11.125 0 -17.546875 -6.421875q-6.421875 -6.421875 -6.421875 -17.015625q0 -8.203125 3.5625 -14.515625q3.5625 -6.328125 9.65625 -9.890625q6.109375 -3.5625 13.453125 -3.5625q8.75 0 13.609375 5.84375q4.859375 5.828125 4.96875 16.515625l-0.4375 0.53125l-30.234375 0l0 0.546875q0 4.53125 1.71875 8.265625q1.734375 3.71875 5.40625 5.890625q3.671875 2.15625 9.71875 2.15625q3.03125 0 6.484375 -0.75q3.453125 -0.765625 7.125 -2.609375l0.328125 0l0 1.734375q-2.703125 5.71875 -8.265625 9.5q-5.5625 3.78125 -13.125 3.78125zm0.21875 -46.546875q-3.78125 0 -6.15625 3.453125q-2.375 3.453125 -3.125 9.71875l18.25 0q-0.765625 -7.453125 -3.03125 -10.3125q-2.265625 -2.859375 -5.9375 -2.859375z" fill-rule="nonzero"/><path fill="#ffffff" d="m220.30446 414.99734l470.01617 0l0 129.6l-470.01617 0l0 -129.6z" fill-rule="nonzero"/><path fill="#000000" fill-opacity="0.0" d="m220.30446 393.39734l32.07602 0l0 156.38403l-32.07602 0l0 -156.38403z" fill-rule="nonzero"/><path fill="#ffffff" d="m236.50758 520.72424q-6.375 0 -9.9375 -3.390625q-3.5625 -3.40625 -3.5625 -9.03125q0 -5.71875 3.671875 -9.28125q3.671875 -3.5625 9.828125 -3.5625q6.046875 0 9.65625 3.515625q3.625 3.5 3.625 9.234375q0 5.609375 -3.453125 9.0625q-3.453125 3.453125 -9.828125 3.453125z" fill-rule="nonzero"/><path fill="#010000" fill-opacity="0.0" d="m252.38048 393.39734l405.86414 0l0 156.38403l-405.86414 0l0 -156.38403z" fill-rule="nonzero"/><path fill="#8dd36a" d="m273.0055 518.67737q-4.53125 0 -7.390625 -2.859375q-2.859375 -2.859375 -2.859375 -7.1875l0 -24.078125q-2.8125 0.640625 -5.078125 -0.75q-2.2656403 -1.40625 -3.6250153 -4.21875q-1.34375 -2.8125 -1.34375 -6.15625q0 -3.34375 1.390625 -6.203125q1.40625 -2.875 3.7343903 -4.375q2.328125 -1.515625 5.125 -0.65625q0.546875 -7.984375 2.59375 -14.1875q2.0625 -6.21875 6.328125 -9.78125q4.265625 -3.578125 11.171875 -3.578125q5.9375 0 9.5 2.4375q3.5625 2.4375 5.015625 6.0q1.46875 3.5625 0.921875 7.234375q-0.53125 3.5625 -2.90625 6.203125q-2.375 2.640625 -7.015625 2.640625q-3.25 0 -5.40625 -1.28125q-2.15625 -1.296875 -3.625 -3.1875q-1.453125 -1.890625 -2.53125 -3.625q-2.703125 -4.3125 -5.515625 -2.921875q-1.390625 0.765625 -1.5 2.4375q-0.109375 1.671875 1.078125 3.828125l2.375 4.109375q1.828125 3.03125 3.875 3.953125q2.0625 0.90625 5.1875 0.46875l5.1875 -0.75q4.96875 -0.75 8.09375 2.703125q3.140625 3.453125 3.140625 8.53125q0 5.296875 -3.1875 8.484375q-3.1875 3.171875 -7.828125 2.640625l-4.53125 -0.546875l0 24.625q0 4.328125 -2.8125 7.1875q-2.8125 2.859375 -7.5625 2.859375zm40.504395 0q-5.078125 0 -7.890625 -2.90625q-2.796875 -2.921875 -2.796875 -7.359375l0 -35.421875q0 -4.640625 2.796875 -7.71875q2.8125 -3.078125 7.890625 -3.078125q5.078125 0 7.765625 3.078125q2.703125 3.078125 2.703125 7.5l0 2.28125l2.0625 0q0.421875 -5.734375 4.3125 -9.40625q3.890625 -3.671875 9.1875 -3.671875q5.28125 0 8.359375 3.25q3.078125 3.234375 3.078125 8.640625q0 5.0625 -2.921875 8.421875q-2.90625 3.34375 -7.4375 3.34375q-3.78125 0 -6.328125 -1.78125q-2.53125 -1.78125 -3.71875 -4.15625q-3.453125 -0.4375 -5.03125 0.703125q-1.5625 1.125 -1.5625 4.484375l0 23.53125q0 4.4375 -2.703125 7.359375q-2.6875 2.90625 -7.765625 2.90625zm66.41165 0.21875q-12.625 0 -20.140625 -7.5q-7.5 -7.515625 -7.5 -21.234375q0 -8.421875 3.453125 -14.796875q3.453125 -6.375 9.65625 -9.984375q6.21875 -3.625 14.53125 -3.625q9.296875 0 15.453125 3.625q6.15625 3.609375 9.234375 9.984375q3.078125 6.375 3.078125 14.796875q0 13.71875 -6.859375 21.234375q-6.859375 7.5 -20.90625 7.5zm-14.78125 -30.5625q0 3.34375 3.34375 4.703125q3.34375 1.34375 11.4375 1.34375q8.109375 0 11.453125 -1.34375q3.34375 -1.359375 3.34375 -4.703125q0 -3.25 -3.34375 -4.546875q-3.34375 -1.296875 -11.453125 -1.296875q-8.09375 0 -11.4375 1.296875q-3.34375 1.296875 -3.34375 4.546875zm58.310883 30.34375q-4.75 0 -7.609375 -2.859375q-2.859375 -2.859375 -2.859375 -7.078125l0 -35.75q0 -4.53125 2.6875 -7.65625q2.703125 -3.140625 7.78125 -3.140625q4.96875 0 7.5625 3.140625q2.59375 3.125 2.59375 7.875l0 5.40625l1.9375 0q0 -6.15625 2.21875 -9.71875q2.21875 -3.578125 5.671875 -5.140625q3.453125 -1.5625 6.90625 -1.5625q8.3125 0 12.203125 6.0q3.890625 5.984375 3.890625 17.0l0 23.546875q0 4.21875 -2.8125 7.078125q-2.796875 2.859375 -7.546875 2.859375q-4.875 0 -7.734375 -2.859375q-2.859375 -2.859375 -2.859375 -7.078125l0 -19.109375q0 -3.890625 -1.453125 -6.046875q-1.453125 -2.171875 -4.265625 -2.171875q-3.25 0 -4.703125 2.375q-1.453125 2.375 -1.453125 6.046875l0 18.90625q0 4.21875 -2.703125 7.078125q-2.703125 2.859375 -7.453125 2.859375zm77.759766 0.328125q-5.71875 0 -10.3125 -2.59375q-4.59375 -2.59375 -7.1875 -7.390625q-2.59375 -4.8125 -2.59375 -11.296875l0 -19.0l-3.984375 0.53125q-3.25 0.4375 -5.734375 -2.265625q-2.484375 -2.703125 -2.484375 -6.796875q0 -4.109375 2.484375 -6.75q2.484375 -2.65625 5.734375 -2.21875l3.984375 0.53125l-0.09375 -7.34375q-0.109375 -4.3125 2.46875 -6.84375q2.59375 -2.546875 7.5625 -2.546875q4.96875 0 7.671875 2.546875q2.703125 2.53125 2.484375 6.84375l-0.21875 7.34375l5.734375 -0.75q5.828125 -0.859375 8.84375 2.109375q3.03125 2.96875 3.03125 7.078125q0 4.09375 -2.96875 7.0625q-2.96875 2.96875 -8.59375 2.21875l-6.046875 -0.75l0 16.078125q0 1.40625 0.96875 2.546875q0.984375 1.125 2.390625 0.703125q1.609375 -0.4375 3.390625 -1.84375q1.78125 -1.40625 4.59375 -1.40625q4.21875 0 6.484375 3.03125q2.265625 3.03125 2.265625 7.453125q0 3.453125 -2.4375 6.640625q-2.421875 3.1875 -6.859375 5.140625q-4.421875 1.9375 -10.578125 1.9375zm23.221985 -69.34375q0 -4.640625 2.859375 -7.5q2.859375 -2.859375 7.9375 -2.859375q5.40625 0 8.046875 2.8125q2.640625 2.796875 2.640625 7.4375q0 4.546875 -2.640625 7.296875q-2.640625 2.75 -8.046875 2.75q-5.296875 0 -8.046875 -2.75q-2.75 -2.75 -2.75 -7.1875zm10.796875 69.015625q-5.078125 0 -7.5625 -2.796875q-2.484375 -2.8125 -2.484375 -7.03125l0 -36.9375q0 -4.640625 2.484375 -7.34375q2.484375 -2.703125 7.5625 -2.703125q5.078125 0 7.609375 2.703125q2.546875 2.703125 2.546875 7.125l0 37.15625q0 4.21875 -2.65625 7.03125q-2.640625 2.796875 -7.5 2.796875zm15.663147 -28.078125q0 -8.53125 3.390625 -15.015625q3.40625 -6.484375 9.71875 -10.15625q6.328125 -3.671875 15.078125 -3.671875q6.796875 0 12.25 2.484375q5.46875 2.484375 8.59375 6.65625q3.125 4.15625 3.125 9.125q0 5.171875 -3.03125 7.34375q-3.015625 2.15625 -8.953125 2.15625l-22.671875 0q0 2.796875 2.203125 4.640625q2.21875 1.828125 7.515625 1.828125q2.703125 0 5.015625 -0.53125q2.328125 -0.546875 4.75 -1.03125q2.4375 -0.484375 5.453125 -0.484375q4.328125 0 7.125 3.078125q2.8125 3.078125 2.8125 8.484375q0 6.375 -6.53125 9.9375q-6.53125 3.5625 -17.109375 3.5625q-7.453125 0 -14.0 -2.921875q-6.53125 -2.921875 -10.640625 -9.234375q-4.09375 -6.3125 -4.09375 -16.25zm34.984375 -4.640625q1.625 0 1.09375 -1.515625q-0.4375 -1.515625 -2.609375 -3.125q-2.15625 -1.625 -6.25 -1.625q-4.75 0 -7.078125 2.046875q-2.328125 2.046875 -2.328125 4.21875l17.171875 0zm33.920654 32.71875q-5.078125 0 -7.890625 -2.90625q-2.796875 -2.921875 -2.796875 -7.359375l0 -35.421875q0 -4.640625 2.796875 -7.71875q2.8125 -3.078125 7.890625 -3.078125q5.078125 0 7.765625 3.078125q2.703125 3.078125 2.703125 7.5l0 2.28125l2.0625 0q0.421875 -5.734375 4.3125 -9.40625q3.890625 -3.671875 9.1875 -3.671875q5.28125 0 8.359375 3.25q3.078125 3.234375 3.078125 8.640625q0 5.0625 -2.921875 8.421875q-2.90625 3.34375 -7.4375 3.34375q-3.78125 0 -6.328125 -1.78125q-2.53125 -1.78125 -3.71875 -4.15625q-3.453125 -0.4375 -5.03125 0.703125q-1.5625 1.125 -1.5625 4.484375l0 23.53125q0 4.4375 -2.703125 7.359375q-2.6875 2.90625 -7.765625 2.90625z" fill-rule="nonzero"/><path fill="#000000" fill-opacity="0.0" d="m658.2446 393.39734l32.07605 0l0 156.38403l-32.07605 0l0 -156.38403z" fill-rule="nonzero"/><path fill="#ffffff" d="m674.44775 520.72424q-6.375 0 -9.9375 -3.390625q-3.5625 -3.40625 -3.5625 -9.03125q0 -5.71875 3.671875 -9.28125q3.671875 -3.5625 9.828125 -3.5625q6.046875 0 9.65625 3.515625q3.625 3.5 3.625 9.234375q0 5.609375 -3.453125 9.0625q-3.453125 3.453125 -9.828125 3.453125z" fill-rule="nonzero"/><path fill="#ffffff" d="m225.05446 648.67737l0 -1.734375l9.1875 -4.421875l0 -58.96875l-9.1875 -4.421875l0 -1.734375l35.750015 0l0 1.734375l-10.26564 4.421875l0 59.1875l23.76564 0l8.75 -20.421875l1.71875 0l0 26.359375l-59.718765 0zm83.48268 -61.015625q-3.453125 0 -5.671875 -2.21875q-2.203125 -2.21875 -2.203125 -5.5625q0 -3.453125 2.203125 -5.671875q2.21875 -2.21875 5.671875 -2.21875q3.34375 0 5.609375 2.21875q2.28125 2.21875 2.28125 5.671875q0 3.34375 -2.28125 5.5625q-2.265625 2.21875 -5.609375 2.21875zm-14.578125 61.015625l0 -1.734375l7.234375 -3.453125l0 -32.828125l-6.90625 -5.078125l0 -1.296875l20.84375 -5.9375l1.296875 0l0 45.140625l6.375 3.453125l0 1.734375l-28.84375 0zm54.979614 1.078125q-5.296875 0 -9.25 -1.03125q-3.9375 -1.015625 -7.71875 -2.859375l0 -12.53125l1.625 0l3.78125 5.625q3.890625 5.9375 11.125 5.9375q8.421875 0 8.421875 -6.046875q0 -2.265625 -1.140625 -3.671875q-1.125 -1.40625 -3.828125 -2.75q-2.703125 -1.359375 -7.34375 -3.1875q-6.15625 -2.484375 -9.015625 -5.828125q-2.859375 -3.359375 -2.859375 -8.328125q0 -4.640625 2.421875 -8.421875q2.4375 -3.78125 6.640625 -6.046875q4.21875 -2.265625 9.515625 -2.265625q3.671875 0 7.171875 0.765625q3.515625 0.75 6.859375 2.46875l0 12.859375l-1.609375 0l-3.359375 -5.078125q-2.15625 -3.125 -4.265625 -4.640625q-2.109375 -1.515625 -5.125 -1.515625q-3.234375 0 -5.234375 1.625q-2.0 1.609375 -2.0 4.53125q0 1.84375 0.90625 3.25q0.921875 1.390625 3.296875 2.6875q2.375 1.296875 6.8125 3.03125q3.015625 1.1875 6.03125 2.75q3.03125 1.5625 4.96875 4.4375q1.953125 2.859375 1.953125 7.921875q0 5.078125 -2.703125 8.75q-2.6875 3.671875 -6.953125 5.625q-4.265625 1.9375 -9.125 1.9375zm48.060913 0q-6.59375 0 -10.8125 -2.796875q-4.203125 -2.8125 -4.203125 -7.890625l0 -34.78125l-7.78125 0l0 -1.515625l9.9375 -3.34375l10.90625 -11.875l2.15625 0l0 11.875l14.90625 0l0 4.859375l-14.90625 0l0 31.96875q0 2.8125 2.328125 4.109375q2.328125 1.296875 5.5625 1.296875q2.046875 0 3.609375 -0.21875q1.578125 -0.21875 3.078125 -0.546875l0.328125 0.21875l0 1.84375q-1.71875 2.59375 -5.890625 4.703125q-4.15625 2.09375 -9.21875 2.09375z" fill-rule="nonzero"/></g></svg>